<?xml version="1.0" standalone="no"?>
<!DOCTYPE svg PUBLIC "-//W3C//DTD SVG 20010904//EN"
 "http://www.w3.org/TR/2001/REC-SVG-20010904/DTD/svg10.dtd">
<svg version="1.0" xmlns="http://www.w3.org/2000/svg"
 width="200.000000pt" height="200.000000pt" viewBox="0 0 200.000000 200.000000"
 preserveAspectRatio="xMidYMid meet">

<g transform="translate(0.000000,200.000000) scale(0.100000,-0.100000)"
fill="#000000" stroke="none">
<path d="M185 1155 c-124 -44 -168 -236 -74 -322 30 -27 142 -57 183 -49 61
12 135 64 158 110 19 40 20 47 7 86 -16 49 -42 71 -60 53 -9 -9 -7 -22 11 -57
22 -41 23 -47 10 -72 -18 -33 -120 -84 -168 -84 -66 0 -139 61 -143 120 -5 85
0 101 45 146 37 38 49 44 85 44 23 0 51 -5 62 -11 35 -18 44 -4 12 19 -42 30
-80 35 -128 17z"/>
<path d="M553 1068 c-30 -14 -45 -60 -32 -97 15 -44 76 -64 120 -40 29 15 14
28 -26 22 -43 -7 -65 9 -65 47 0 38 22 54 65 47 40 -6 55 7 26 22 -24 14 -59
13 -88 -1z"/>
<path d="M1000 1055 c0 -8 -4 -15 -10 -15 -5 0 -10 -7 -10 -15 0 -8 5 -15 10
-15 6 0 10 -15 10 -33 0 -18 5 -38 12 -45 16 -16 61 -16 56 1 -3 6 -11 12 -19
12 -9 0 -15 13 -17 33 -2 24 1 32 12 32 9 0 16 7 16 15 0 8 -7 15 -15 15 -8 0
-15 7 -15 15 0 8 -7 15 -15 15 -8 0 -15 -7 -15 -15z"/>
<path d="M1340 1055 c0 -8 -4 -15 -10 -15 -5 0 -10 -7 -10 -15 0 -8 5 -15 10
-15 6 0 10 -15 10 -33 0 -18 5 -38 12 -45 16 -16 61 -16 56 1 -3 6 -11 12 -19
12 -9 0 -15 13 -17 33 -2 24 1 32 12 32 9 0 16 7 16 15 0 8 -7 15 -15 15 -8 0
-15 7 -15 15 0 8 -7 15 -15 15 -8 0 -15 -7 -15 -15z"/>
<path d="M695 1024 c-25 -25 -16 -75 17 -93 59 -33 121 28 84 83 -20 31 -75
36 -101 10z m68 -19 c24 -23 10 -57 -22 -53 -29 3 -40 31 -21 53 16 19 25 19
43 0z"/>
<path d="M840 979 c0 -46 3 -59 15 -59 11 0 15 11 15 39 0 46 22 70 45 51 9
-7 15 -29 15 -51 0 -28 4 -39 15 -39 11 0 15 11 15 41 0 65 -12 79 -70 78
l-50 -2 0 -58z"/>
<path d="M1090 979 c0 -52 2 -59 20 -59 17 0 20 7 20 41 0 32 4 42 20 46 36
10 23 31 -20 31 l-40 1 0 -60z"/>
<path d="M1197 1034 c-12 -13 4 -24 27 -18 14 3 27 -1 35 -10 12 -14 10 -16
-15 -16 -40 0 -56 -13 -52 -41 3 -22 8 -24 56 -25 l52 -2 0 40 c0 59 -14 78
-59 78 -21 0 -41 -3 -44 -6z m67 -79 c-4 -8 -15 -15 -25 -15 -10 0 -19 7 -19
15 0 9 9 15 25 15 18 0 23 -4 19 -15z"/>
<path d="M1435 1031 c-7 -12 12 -24 25 -16 13 8 50 -4 50 -16 0 -5 -11 -9 -24
-9 -39 0 -56 -11 -56 -35 0 -27 17 -34 73 -33 l37 0 0 47 c0 26 -5 52 -12 59
-14 14 -84 16 -93 3z m73 -73 c-7 -20 -48 -23 -48 -4 0 11 9 16 26 16 16 0 24
-5 22 -12z"/>
<path d="M1580 979 c0 -46 3 -59 15 -59 11 0 15 11 15 38 0 41 15 63 36 55 9
-3 14 -21 14 -49 0 -37 3 -44 20 -44 17 0 20 7 20 44 0 43 11 58 38 49 7 -3
12 -22 12 -49 0 -32 4 -44 15 -44 19 0 21 92 3 108 -7 5 -52 10 -100 10 l-88
0 0 -59z"/>
<path d="M1824 1014 c-34 -51 15 -106 80 -90 36 9 23 26 -20 26 -19 0 -34 5
-34 10 0 6 20 10 45 10 49 0 56 10 29 48 -22 32 -78 30 -100 -4z m76 -9 c11
-13 7 -15 -25 -15 -32 0 -36 2 -25 15 7 8 18 15 25 15 7 0 18 -7 25 -15z"/>
</g>
</svg>
